<?xml version="1.0" standalone="no"?>
<!DOCTYPE svg PUBLIC "-//W3C//DTD SVG 20010904//EN"
 "http://www.w3.org/TR/2001/REC-SVG-20010904/DTD/svg10.dtd">
<svg version="1.0" xmlns="http://www.w3.org/2000/svg"
 width="500.000000pt" height="500.000000pt" viewBox="0 0 500.000000 500.000000"
 preserveAspectRatio="xMidYMid meet">
<metadata>
Created by potrace 1.11, written by Peter Selinger 2001-2013
</metadata>
<g transform="translate(0.000000,500.000000) scale(0.100000,-0.100000)"
fill="#000000" stroke="none">
<path d="M907 4352 c-16 -3 -17 -129 -17 -1852 l0 -1848 1850 0 1850 0 0 1851
0 1852 -1833 0 c-1008 0 -1841 -1 -1850 -3z m3545 -112 l28 0 0 -1700 c0 -935
1 -1703 1 -1708 1 -4 1 -21 0 -38 l-1 -31 -1737 1 -1738 1 -2 1735 c-1 954 2
1737 7 1740 6 4 3223 4 3442 0z"/>
<path d="M1310 2821 c-73 -15 -138 -56 -203 -131 -25 -29 -56 -118 -60 -170
-10 -138 62 -263 188 -328 43 -22 64 -26 141 -26 80 -1 97 2 147 28 63 32 125
93 158 157 27 53 33 192 12 254 -31 89 -122 179 -205 204 -51 16 -133 21 -178
12z"/>
<path d="M440 2821 c-118 -25 -219 -120 -252 -236 -45 -157 31 -324 180 -393
79 -37 203 -38 277 -3 69 33 148 116 173 182 28 75 26 195 -6 260 -68 140
-226 221 -372 190z"/>
</g>
</svg>
